 <svg
        xmlns="http://www.w3.org/2000/svg"
        viewBox="0 0 32 32"
      >
        <path
          fill="var(--blue-a4)"
          stroke="var(--blue-a9)"
          d="M24.7556 1H7.48631C3.90402 1 1 3.90402 1 7.48631V24.7556C1 28.3379 3.90402 31.242 7.48631 31.242H24.7556C28.3379 31.242 31.242 28.3379 31.242 24.7556V7.48631C31.242 3.90402 28.3379 1 24.7556 1Z"
          strokeLinejoin="round"
          strokeWidth="1.16315"
        />
        <path
          fill="none"
          stroke="var(--blue-a9)"
          d="M11.9373 5.64098C11.4687 11.2477 16.9909 13.7251 19.3763 13.6023C21.7617 13.4796 23.7443 15.1805 22.2571 17.186C20.77 19.1914 12.9086 15.4767 11.8267 24.3968"
          strokeLinecap="round"
          strokeWidth="1.16315"
        />
        <path
          fill="none"
          stroke="var(--blue-a9)"
          d="M15.427 5.80205C15.4231 9.11567 19.2654 10.3428 21.7084 10.3655C24.1514 10.3881 26.3245 13.2897 26.1644 15.8416C26.0043 18.3934 24.6199 21.0574 20.742 21.425C16.8642 21.7926 16.0911 21.2712 15.4807 24.5389"
          strokeLinecap="round"
          strokeWidth="1.16315"
        />
        <path
          fill="none"
          stroke="var(--blue-a11)"
          d="M10.8625 15.801L14.4747 15.8156L12.6756 12.3247L10.8625 15.801Z"
          strokeLinecap="round"
          strokeLinejoin="round"
          strokeWidth="0.983243"
        />
        <path
          fill="none"
          stroke="var(--blue-a11)"
          d="M12.6687 15.8083V17.0576"
          strokeLinecap="round"
          strokeWidth="0.983243"
        />
        <path
          fill="none"
          stroke="var(--blue-a11)"
          d="M6.75977 19.5968L10.3719 19.6114L8.57282 16.1205L6.75977 19.5968Z"
          strokeLinecap="round"
          strokeLinejoin="round"
          strokeWidth="0.983243"
        />
        <path
          fill="none"
          stroke="var(--blue-a11)"
          d="M8.56592 19.604V20.8533"
          strokeLinecap="round"
          strokeWidth="0.983243"
        />
        <path
          fill="none"
          stroke="var(--blue-a11)"
          d="M5.8938 12.8277L9.50593 12.8423L7.70685 9.35141L5.8938 12.8277Z"
          strokeLinecap="round"
          strokeLinejoin="round"
          strokeWidth="0.983243"
        />
        <path
          fill="none"
          stroke="var(--blue-a11)"
          d="M7.69995 12.835V14.0843"
          strokeLinecap="round"
          strokeWidth="0.983243"
        />
        <path
          fill="var(--blue-a11)"
          d="M18.9208 24.3614C19.2563 24.3614 19.5282 24.0894 19.5282 23.754C19.5282 23.4186 19.2563 23.1467 18.9208 23.1467C18.5854 23.1467 18.3135 23.4186 18.3135 23.754C18.3135 24.0894 18.5854 24.3614 18.9208 24.3614Z"
        />
        <path
          fill="var(--blue-a11)"
          d="M20.9325 25.5924C21.268 25.5924 21.5399 25.3204 21.5399 24.985C21.5399 24.6496 21.268 24.3777 20.9325 24.3777C20.5971 24.3777 20.3252 24.6496 20.3252 24.985C20.3252 25.3204 20.5971 25.5924 20.9325 25.5924Z"
        />
        <path
          fill="var(--blue-a11)"
          d="M22.9445 24.3614C23.2799 24.3614 23.5519 24.0894 23.5519 23.754C23.5519 23.4186 23.2799 23.1467 22.9445 23.1467C22.6091 23.1467 22.3372 23.4186 22.3372 23.754C22.3372 24.0894 22.6091 24.3614 22.9445 24.3614Z"
        />
        <path
          fill="var(--blue-a11)"
          d="M24.8657 25.5924C25.2011 25.5924 25.473 25.3204 25.473 24.985C25.473 24.6496 25.2011 24.3777 24.8657 24.3777C24.5302 24.3777 24.2583 24.6496 24.2583 24.985C24.2583 25.3204 24.5302 25.5924 24.8657 25.5924Z"
        />
        <path
          fill="none"
          stroke="var(--blue-a11)"
          d="M19.5947 7.99742L21.6144 5.89142L23.603 7.99742"
          strokeLinecap="round"
          strokeWidth="1.04822"
        />
        <path
          fill="none"
          stroke="var(--blue-a11)"
          d="M22.6086 6.94442L23.9137 5.66577L25.9955 8.09771"
          strokeLinecap="round"
          strokeWidth="1.04822"
        />
      </svg>