<svg xmlns="http://www.w3.org/2000/svg" viewBox="0 0 32 32"><path fill="var(--blue-a4, #EAF6FF)" stroke="var(--river-blue,#0954A5)" d="M24.7557 1H7.4863C3.90402 1 1 3.90402 1 7.4863V24.7557C1 28.338 3.90402 31.242 7.4863 31.242H24.7557C28.338 31.242 31.242 28.338 31.242 24.7557V7.4863C31.242 3.90402 28.338 1 24.7557 1Z" strokeLinejoin="round" strokeWidth="1.1632"/><path fill="var(--blue-a4, #EAF6FF)" d="M11.7146 18.7145L11.7453 17.5504L11.7146 18.7145ZM8.03857 20.093C9.84177 19.8153 9.98517 18.7438 9.93787 17.5811L8.03857 20.093ZM15.6204 20.0624C13.2439 20.1319 13.5934 17.8188 13.5833 17.428L15.6204 20.0624ZM11.7759 10.5967C8.93417 12.0043 7.79997 14.2658 7.73227 17.0604C7.60176 20.3322 4.54997 18.4132 4.53747 20.2283C4.52584 22.0434 6.72577 20.9856 6.72147 22.5284C6.71682 24.0712 4.48887 23.3902 4.51587 24.7493C4.54285 26.1084 6.39987 25.9746 6.39987 25.9746L23.2329 25.9583C23.2329 25.9583 25.5279 26.0516 25.4538 24.5798C25.3796 23.108 20.2017 24.5938 20.1389 22.6652C20.0761 20.7383 23.3981 22.5275 23.386 20.3677C23.3743 18.2081 17.9727 19.7041 16.7386 19.0199C15.5044 18.3356 15.4376 16.5382 16.4935 15.1907"/><path fill="none" stroke="var(--light-river-blue,#52A9FF)" d="M11.7146 18.7145L11.7453 17.5504M8.03857 20.093C9.84177 19.8153 9.98517 18.7438 9.93787 17.5811M15.6204 20.0624C13.2439 20.1319 13.5934 17.8188 13.5833 17.428M11.7759 10.5967C8.93417 12.0043 7.79997 14.2658 7.73227 17.0604C7.60176 20.3322 4.54997 18.4132 4.53747 20.2283C4.52584 22.0434 6.72577 20.9856 6.72147 22.5284C6.71682 24.0712 4.48887 23.3902 4.51587 24.7493C4.54285 26.1084 6.39987 25.9746 6.39987 25.9746L23.2329 25.9583C23.2329 25.9583 25.5279 26.0516 25.4538 24.5798C25.3796 23.108 20.2017 24.5938 20.1389 22.6652C20.0761 20.7383 23.3981 22.5275 23.386 20.3677C23.3743 18.2081 17.9727 19.7041 16.7386 19.0199C15.5044 18.3356 15.4376 16.5382 16.4935 15.1907" strokeLinecap="round" strokeWidth="1.1632"/><path fill="var(--blue-a4, #EAF6FF)" d="M19.1515 14.7315L19.6936 15.2719C19.0431 15.9538 18.4324 17.0007 17.3407 16.0836L11.1673 9.86695C10.4644 9.20954 10.6387 8.83605 10.929 8.43735L11.8821 7.48424L12.5652 8.1453M23.2562 14.272L23.2867 6.3073L23.2562 14.272ZM25.6149 15.6198V4.8058C24.6502 4.79416 23.6926 4.8015 23.2867 6.3073C18.95 6.55586 15.3727 5.51317 12.5652 8.1453L19.1515 14.7315C20.0181 13.9213 21.803 14.3544 23.2562 14.272C23.655 15.5205 24.7626 15.624 25.6149 15.6198Z"/><path fill="none" stroke="var(--river-blue,#0954A5)" d="M19.1515 14.7315L19.6936 15.2719C19.0431 15.9538 18.4324 17.0007 17.3407 16.0836L11.1673 9.86695C10.4644 9.20954 10.6387 8.83605 10.929 8.43735L11.8821 7.48424L12.5652 8.1453M19.1515 14.7315L12.5652 8.1453M19.1515 14.7315C20.0181 13.9213 21.803 14.3544 23.2562 14.272M12.5652 8.1453C15.3727 5.51317 18.95 6.55586 23.2867 6.3073M23.2562 14.272L23.2867 6.3073M23.2562 14.272C23.655 15.5205 24.7626 15.624 25.6149 15.6198V4.8058C24.6502 4.79416 23.6926 4.8015 23.2867 6.3073" strokeWidth="1.1632"/><path fill="var(--blue-a4, #EAF6FF)" d="M11.7786 23.8295C12.4332 22.9465 12.3561 21.9559 11.7786 20.8917V23.8295ZM9.96329 22.2651C11.7725 19.7379 13.3191 20.4508 15.3325 22.313C15.6425 21.3898 16.3734 20.5991 17.5861 20.5787C17.1032 21.7922 17.0439 23.0269 17.5861 24.2917C16.4648 24.287 15.7109 23.2978 15.3937 22.3878C13.4955 24.3881 11.9557 24.6564 9.95499 22.5032C9.91963 22.4239 9.88589 22.3445 9.96429 22.2651L9.96329 22.2651Z"/><path fill="none" stroke="var(--river-blue,#0954A5)" d="M11.7786 23.8295C12.4332 22.9465 12.3561 21.9559 11.7786 20.8917M9.96329 22.2651C11.7725 19.7379 13.3191 20.4508 15.3325 22.313C15.6425 21.3898 16.3734 20.5991 17.5861 20.5787C17.1032 21.7922 17.0439 23.0269 17.5861 24.2917C16.4648 24.287 15.7109 23.2978 15.3937 22.3878C13.4955 24.3881 11.9557 24.6564 9.95499 22.5032C9.91963 22.4239 9.88589 22.3445 9.96429 22.2651L9.96329 22.2651Z" strokeLinecap="round" strokeLinejoin="round" strokeWidth="1.1632"/></svg>