<svg xmlns="http://www.w3.org/2000/svg" viewBox="0 0 32 32"><path fill="var(--blue-a4, #EAF6FF)" stroke="var(--river-blue,#0954A5)" d="M24.7557 1H7.4863C3.90402 1 1 3.90402 1 7.4863V24.7557C1 28.338 3.90402 31.242 7.4863 31.242H24.7557C28.338 31.242 31.242 28.338 31.242 24.7557V7.4863C31.242 3.90402 28.338 1 24.7557 1Z" strokeLinejoin="round" strokeWidth="1.1632"/><path fill="none" stroke="var(--river-blue,#0954A5)" d="M15.0684 15.7695C13.9746 15.565 13.0833 14.9759 12.4837 14.0613C12.0287 13.3671 11.9052 12.9356 11.9085 12.0503C11.9107 11.395 11.9295 11.2626 12.0842 10.8567C12.5273 9.68666 13.2473 8.38546 14.4038 6.66486C15.1819 5.50736 15.3074 5.38606 15.7268 5.38666C16.0633 5.3871 16.2584 5.59277 17.0455 6.77596C18.5612 9.05436 19.256 10.4339 19.4921 11.634C19.55 11.9287 19.5446 12.0994 19.463 12.5749C19.15 14.3925 17.6932 15.7034 15.8856 15.7941C15.5882 15.8081 15.2204 15.7988 15.0684 15.7695Z" strokeWidth="1.1632"/><path fill="none" stroke="var(--light-river-blue,#52A9FF)" d="M5.67273 17.8175C6.24588 17.9784 6.81843 18.5657 7.39103 19.0642C7.96421 19.5626 8.53673 19.8866 9.10933 19.7524C9.68251 19.6184 10.255 19.0473 10.8276 18.5418C11.4008 18.0364 11.9734 17.6825 12.5459 17.7901C13.1185 17.8978 13.6916 18.4503 14.2642 18.9614C14.8368 19.4725 15.4099 19.8553 15.9825 19.7745C16.5551 19.6935 17.1283 19.1611 17.7008 18.6458C18.2734 18.1304 18.8465 17.7197 19.4191 17.7737C19.9917 17.8276 20.5648 18.3386 21.1374 18.8567C21.71 19.3748 22.2825 19.8123 22.8557 19.7855C23.4283 19.7587 24.0009 19.2706 24.574 18.7511C25.1466 18.2315 25.7192 17.7685 26.2923 17.7681" strokeLinecap="round" strokeLinejoin="round" strokeWidth="1.0976"/><path fill="none" stroke="var(--light-river-blue,#52A9FF)" d="M5.67273 21.5104C6.24588 21.6714 6.81843 22.2587 7.39103 22.7571C7.96421 23.2555 8.53673 23.5796 9.10933 23.4454C9.68251 23.3114 10.255 22.7402 10.8276 22.2348C11.4008 21.7294 11.9734 21.3755 12.5459 21.4831C13.1185 21.5908 13.6916 22.1434 14.2642 22.6544C14.8368 23.1655 15.4099 23.5484 15.9825 23.4674C16.5551 23.3865 17.1283 22.8541 17.7008 22.3388C18.2734 21.8234 18.8465 21.4127 19.4191 21.4667C19.9917 21.5206 20.5648 22.0316 21.1374 22.5497C21.71 23.0678 22.2825 23.5053 22.8557 23.4785C23.4283 23.4517 24.0009 22.9636 24.574 22.4441C25.1466 21.9245 25.7192 21.4615 26.2923 21.4611" strokeLinecap="round" strokeLinejoin="round" strokeWidth="1.0976"/><path fill="none" stroke="var(--light-river-blue,#52A9FF)" d="M5.67273 25.2035C6.24588 25.3645 6.81843 25.9517 7.39103 26.4502C7.96421 26.9486 8.53673 27.2726 9.10933 27.1385C9.68251 27.0042 10.255 26.4333 10.8276 25.9279C11.4008 25.4224 11.9734 25.0685 12.5459 25.1762C13.1185 25.2839 13.6916 25.8364 14.2642 26.3474C14.8368 26.8585 15.4099 27.2413 15.9825 27.1604C16.5551 27.0795 17.1283 26.547 17.7008 26.0317C18.2734 25.5164 18.8465 25.1057 19.4191 25.1596C19.9917 25.2136 20.5648 25.7245 21.1374 26.2427C21.71 26.7608 22.2825 27.1983 22.8557 27.1715C23.4283 27.1448 24.0009 26.6566 24.574 26.1371C25.1466 25.6176 25.7192 25.1546 26.2923 25.1542" strokeLinecap="round" strokeLinejoin="round" strokeWidth="1.0976"/></svg>