
    <svg display="none" width="0" height="0" version="1.1" xmlns="http://www.w3.org/2000/svg" xmlns:xlink="http://www.w3.org/1999/xlink">
      <defs><symbol id="icon-current-location" viewBox="0 0 24 24"><path fill="none" stroke="none" d="M0 0h24v24H0z"/><path fill="none" stroke="currentColor" d="M12 12m-3 0a3 3 0 1 0 6 0a3 3 0 1 0 -6 0"/><path fill="none" stroke="currentColor" d="M12 12m-8 0a8 8 0 1 0 16 0a8 8 0 1 0 -16 0"/><path fill="none" stroke="currentColor" d="M12 2l0 2"/><path fill="none" stroke="currentColor" d="M12 20l0 2"/><path fill="none" stroke="currentColor" d="M20 12l2 0"/><path fill="none" stroke="currentColor" d="M2 12l2 0"/></symbol><symbol id="icon-hydrology-model" viewBox="0 0 32 32"><path fill="var(--blue-a4)" stroke="var(--blue-a9)" d="M24.7556 1H7.48631C3.90402 1 1 3.90402 1 7.48631V24.7556C1 28.3379 3.90402 31.242 7.48631 31.242H24.7556C28.3379 31.242 31.242 28.3379 31.242 24.7556V7.48631C31.242 3.90402 28.3379 1 24.7556 1Z" strokeLinejoin="round" strokeWidth="1.16315"/><path fill="none" stroke="var(--blue-a9)" d="M11.9373 5.64098C11.4687 11.2477 16.9909 13.7251 19.3763 13.6023C21.7617 13.4796 23.7443 15.1805 22.2571 17.186C20.77 19.1914 12.9086 15.4767 11.8267 24.3968" strokeLinecap="round" strokeWidth="1.16315"/><path fill="none" stroke="var(--blue-a9)" d="M15.427 5.80205C15.4231 9.11567 19.2654 10.3428 21.7084 10.3655C24.1514 10.3881 26.3245 13.2897 26.1644 15.8416C26.0043 18.3934 24.6199 21.0574 20.742 21.425C16.8642 21.7926 16.0911 21.2712 15.4807 24.5389" strokeLinecap="round" strokeWidth="1.16315"/><path fill="none" stroke="var(--blue-a11)" d="M10.8625 15.801L14.4747 15.8156L12.6756 12.3247L10.8625 15.801Z" strokeLinecap="round" strokeLinejoin="round" strokeWidth="0.983243"/><path fill="none" stroke="var(--blue-a11)" d="M12.6687 15.8083V17.0576" strokeLinecap="round" strokeWidth="0.983243"/><path fill="none" stroke="var(--blue-a11)" d="M6.75977 19.5968L10.3719 19.6114L8.57282 16.1205L6.75977 19.5968Z" strokeLinecap="round" strokeLinejoin="round" strokeWidth="0.983243"/><path fill="none" stroke="var(--blue-a11)" d="M8.56592 19.604V20.8533" strokeLinecap="round" strokeWidth="0.983243"/><path fill="none" stroke="var(--blue-a11)" d="M5.8938 12.8277L9.50593 12.8423L7.70685 9.35141L5.8938 12.8277Z" strokeLinecap="round" strokeLinejoin="round" strokeWidth="0.983243"/><path fill="none" stroke="var(--blue-a11)" d="M7.69995 12.835V14.0843" strokeLinecap="round" strokeWidth="0.983243"/><path fill="var(--blue-a11)" d="M18.9208 24.3614C19.2563 24.3614 19.5282 24.0894 19.5282 23.754C19.5282 23.4186 19.2563 23.1467 18.9208 23.1467C18.5854 23.1467 18.3135 23.4186 18.3135 23.754C18.3135 24.0894 18.5854 24.3614 18.9208 24.3614Z"/><path fill="var(--blue-a11)" d="M20.9325 25.5924C21.268 25.5924 21.5399 25.3204 21.5399 24.985C21.5399 24.6496 21.268 24.3777 20.9325 24.3777C20.5971 24.3777 20.3252 24.6496 20.3252 24.985C20.3252 25.3204 20.5971 25.5924 20.9325 25.5924Z"/><path fill="var(--blue-a11)" d="M22.9445 24.3614C23.2799 24.3614 23.5519 24.0894 23.5519 23.754C23.5519 23.4186 23.2799 23.1467 22.9445 23.1467C22.6091 23.1467 22.3372 23.4186 22.3372 23.754C22.3372 24.0894 22.6091 24.3614 22.9445 24.3614Z"/><path fill="var(--blue-a11)" d="M24.8657 25.5924C25.2011 25.5924 25.473 25.3204 25.473 24.985C25.473 24.6496 25.2011 24.3777 24.8657 24.3777C24.5302 24.3777 24.2583 24.6496 24.2583 24.985C24.2583 25.3204 24.5302 25.5924 24.8657 25.5924Z"/><path fill="none" stroke="var(--blue-a11)" d="M19.5947 7.99742L21.6144 5.89142L23.603 7.99742" strokeLinecap="round" strokeWidth="1.04822"/><path fill="none" stroke="var(--blue-a11)" d="M22.6086 6.94442L23.9137 5.66577L25.9955 8.09771" strokeLinecap="round" strokeWidth="1.04822"/></symbol><symbol id="icon-info" viewBox="0 0 24 24"><path fill="currentColor" d="M12.5 7.5a1 1 0 1 1 1-1 1.002 1.002 0 0 1-1 1zM13 18V9h-2v1h1v8h-1v1h3v-1zm9.8-5.5A10.3 10.3 0 1 1 12.5 2.2a10.297 10.297 0 0 1 10.3 10.3zm-1 0a9.3 9.3 0 1 0-9.3 9.3 9.31 9.31 0 0 0 9.3-9.3z"/><path fill="none" d="M0 0h24v24H0z"/></symbol><symbol id="icon-logo" viewBox="0 0 55.262 82.893"><path fill="#fff" stroke-width="3.4539" d="m27.631 48.576c-11.52 0-20.945-9.4252-20.945-20.945 0-11.52 9.4252-20.945 20.945-20.945s20.945 9.4252 20.945 20.945c0 11.52-9.4252 20.945-20.945 20.945z"/><path fill="#0954a5" stroke-width="3.4539" d="m27.631 0c-15.197 0-27.631 12.434-27.631 27.631 0 18.651 27.631 55.262 27.631 55.262s27.631-36.611 27.631-55.262c0-15.197-12.434-27.631-27.631-27.631zm0 48.576c-11.52 0-20.945-9.4252-20.945-20.945 0-11.52 9.4252-20.945 20.945-20.945s20.945 9.4252 20.945 20.945c0 11.52-9.4252 20.945-20.945 20.945z"/><path fill="#613d30" d="m27.631 9.2252c-10.153 0-18.406 8.2528-18.406 18.406s8.2528 18.406 18.406 18.406 18.406-8.2528 18.406-18.406-8.2528-18.406-18.406-18.406zm0 2c9.0726 0 16.406 7.3337 16.406 16.406s-7.3337 16.406-16.406 16.406-16.406-7.3337-16.406-16.406 7.3337-16.406 16.406-16.406z" color="#000000" style="-inkscape-stroke:none"/><g transform="matrix(.76128 0 0 .76128 -9.0669 -39.866)"><path fill="#8e562e" stroke-opacity=".94902" stroke-width=".019983" d="m49.882 76.04c-0.10094 0.10452-0.03851 0.28888-0.06271 0.42332-0.03032 0.86222 0.09456 1.7713-0.31851 2.5615-0.27968 0.57016-0.8863 0.89582-1.4879 1.0055-1.2483 0.2437-2.5588 0.01711-3.7858 0.40343-1.0177 0.32092-1.7167 1.3233-1.8046 2.3674-0.05294 0.37556 0.0044 0.75038 0.09271 1.1148 0.06297 0.41012 0.06713 0.93423-0.30482 1.2035-0.33058 0.07974-0.68416 0.07339-1.0077 0.19661-0.99618 0.34054-1.8743 1.167-2.1028 2.2159-0.0249 0.42783-0.0491 0.86866 0.05106 1.289 0.08525 0.4049 0.28783 0.77637 0.58066 1.0681 0.0872 0.06967 0.10497 0.23443-0.03896 0.24276-0.46517 0.07953-0.95965 0.06236-1.3968 0.27426-1.3588 0.58762-2.0398 2.3104-1.5277 3.6835 0.2403 0.6433 0.71889 1.2241 1.3542 1.5039 0.6275 0.14844 1.2802 0.15413 1.9211 0.20459 3.4136 0.19446 6.8339 0.14029 10.251 0.13785 2.0099-0.0064 4.0207-0.01178 6.0277-0.1332 0.64268-0.04979 1.2976-0.0496 1.9263-0.20405 0.50614-0.21726 0.91324-0.63638 1.193-1.1047 0.27129-0.467 0.38678-1.0122 0.34669-1.5497-0.01827-0.765-0.37791-1.5111-0.92872-2.0367-0.48797-0.46605-1.1556-0.71668-1.8274-0.72586-0.14402-0.01099-0.29836-0.01925-0.43649-0.04096 0.27717-0.67331 0.70701-1.3157 0.71917-2.0684 0.04878-1.0957-0.65727-2.1598-1.6664-2.5759-0.46727-0.22526-1.0015-0.22774-1.4735-0.42977-0.21035-0.12-0.25698-0.39366-0.41018-0.56871-0.16485-0.23612-0.36416-0.44495-0.55844-0.65652 0.35596-0.81031 0.78671-1.636 0.76633-2.5457 0.02635-0.56092-0.01866-1.1262-0.19404-1.6625-0.39428-1.363-1.3724-2.5619-2.6537-3.1806-0.39697-0.17833-0.81612-0.33395-1.243-0.41277z"/><g fill="none" stroke="#613d30"><path stroke-width="2.4395" d="m36.613 94.826h23.629"/><path stroke-width="1.7284" d="m38.834 89.325h19.788"/><path stroke-width="1.5348" d="m41.664 84.188h13.149"/></g><path fill="#000" stroke-width=".16677" d="m38.441 97.558c-3.6955-0.92743-4.7527-5.701-1.767-7.9783 0.70002-0.53392 0.73279-0.59817 0.76944-1.5081 0.06906-1.7145 0.8758-3.0618 2.3221-3.8781 0.8652-0.48829 0.88371-0.5149 0.99056-1.424 0.3185-2.7099 1.999-4.0704 5.1897-4.2015 2.344-0.09628 2.2514-4.54e-4 2.2514-2.3311v-1.921l1.4018 0.08746c4.3613 0.27209 6.9818 4.3948 5.6723 8.9237-0.08136 0.28136-0.03965 0.37524 0.16665 0.37524 1.6019 0 3.4611 2.3063 3.5219 4.3688 0.02697 0.91409 0.05559 0.97098 0.75987 1.5081 2.6594 2.0284 2.2134 6.049-0.84902 7.6551l-0.75048 0.39359-9.5895 0.02786c-5.2742 0.01532-9.8146-0.02868-10.09-0.09773zm19.91-2.0237c2.4911-1.4001 1.4974-5.3014-1.356-5.3242-0.25224-0.0019-0.45832-0.02245-0.45793-0.04538 3.33e-4 -0.02295 0.18801-0.41089 0.41694-0.86213 0.90878-1.7913-0.13321-3.7195-2.1755-4.0257-0.47933-0.07188-0.76418-0.20882-0.82356-0.39592-0.1931-0.42388-0.4723-0.69555-0.78626-1.0326l0.386-0.86526c1.1902-2.6679-0.35741-5.9736-3.1749-6.7817l-0.51437-0.14752-6.18e-4 1.1975c-0.0013 2.2408-0.81664 2.9449-3.4182 2.9516-1.875 5e-3 -2.7663 0.28929-3.3897 1.0818-0.54397 0.69154-0.76656 1.6918-0.54274 2.4389 0.21423 0.71504-0.02937 1.4788-0.47214 1.4804-1.2291 0.0044-2.5065 0.95457-2.8573 2.1256-0.22981 0.76704 0.0044 2.0282 0.44499 2.3936 0.35853 0.29755 0.27131 0.48274-0.22926 0.48673-2.8283 0.02256-3.8336 3.8946-1.3807 5.3176 0.92222 0.53501 19.381 0.54103 20.331 0.0066z"/><g stroke-linecap="round"><circle cx="44.626" cy="85.525" r="2.059" fill="#000" stroke="#fff" stroke-width="1.2371"/><path fill="none" stroke="#000" stroke-width="1.5348" d="m52.097-93.125a4.0061 3.0531 0 0 1-2.003 2.6441 4.0061 3.0531 0 0 1-4.0061 0 4.0061 3.0531 0 0 1-2.003-2.6441" transform="scale(1,-1)"/><circle cx="51.484" cy="85.525" r="2.059" fill="#000" stroke="#fff" stroke-width="1.2371"/></g></g><path fill="#52a9ff" d="m27.631 11.223c-9.0506 0-16.406 7.3577-16.406 16.408s7.3556 16.406 16.406 16.406 16.406-7.3556 16.406-16.406-7.3556-16.408-16.406-16.408zm0 4.0267c6.847 0 12.382 5.5346 12.382 12.382s-5.5346 12.382-12.382 12.382-12.382-5.5346-12.382-12.382 5.5346-12.382 12.382-12.382z" color="#000000" style="-inkscape-stroke:none"/></symbol><symbol id="icon-minus" viewBox="0 0 24 24"><line x1="5" x2="19" y1="12" y2="12" stroke="currentColor"/></symbol><symbol id="icon-moon" viewBox="0 0 15 15"><path fill="currentColor" d="M2.89998 0.499976C2.89998 0.279062 2.72089 0.0999756 2.49998 0.0999756C2.27906 0.0999756 2.09998 0.279062 2.09998 0.499976V1.09998H1.49998C1.27906 1.09998 1.09998 1.27906 1.09998 1.49998C1.09998 1.72089 1.27906 1.89998 1.49998 1.89998H2.09998V2.49998C2.09998 2.72089 2.27906 2.89998 2.49998 2.89998C2.72089 2.89998 2.89998 2.72089 2.89998 2.49998V1.89998H3.49998C3.72089 1.89998 3.89998 1.72089 3.89998 1.49998C3.89998 1.27906 3.72089 1.09998 3.49998 1.09998H2.89998V0.499976ZM5.89998 3.49998C5.89998 3.27906 5.72089 3.09998 5.49998 3.09998C5.27906 3.09998 5.09998 3.27906 5.09998 3.49998V4.09998H4.49998C4.27906 4.09998 4.09998 4.27906 4.09998 4.49998C4.09998 4.72089 4.27906 4.89998 4.49998 4.89998H5.09998V5.49998C5.09998 5.72089 5.27906 5.89998 5.49998 5.89998C5.72089 5.89998 5.89998 5.72089 5.89998 5.49998V4.89998H6.49998C6.72089 4.89998 6.89998 4.72089 6.89998 4.49998C6.89998 4.27906 6.72089 4.09998 6.49998 4.09998H5.89998V3.49998ZM1.89998 6.49998C1.89998 6.27906 1.72089 6.09998 1.49998 6.09998C1.27906 6.09998 1.09998 6.27906 1.09998 6.49998V7.09998H0.499976C0.279062 7.09998 0.0999756 7.27906 0.0999756 7.49998C0.0999756 7.72089 0.279062 7.89998 0.499976 7.89998H1.09998V8.49998C1.09998 8.72089 1.27906 8.89997 1.49998 8.89997C1.72089 8.89997 1.89998 8.72089 1.89998 8.49998V7.89998H2.49998C2.72089 7.89998 2.89998 7.72089 2.89998 7.49998C2.89998 7.27906 2.72089 7.09998 2.49998 7.09998H1.89998V6.49998ZM8.54406 0.98184L8.24618 0.941586C8.03275 0.917676 7.90692 1.1655 8.02936 1.34194C8.17013 1.54479 8.29981 1.75592 8.41754 1.97445C8.91878 2.90485 9.20322 3.96932 9.20322 5.10022C9.20322 8.37201 6.82247 11.0878 3.69887 11.6097C3.45736 11.65 3.20988 11.6772 2.96008 11.6906C2.74563 11.702 2.62729 11.9535 2.77721 12.1072C2.84551 12.1773 2.91535 12.2458 2.98667 12.3128L3.05883 12.3795L3.31883 12.6045L3.50684 12.7532L3.62796 12.8433L3.81491 12.9742L3.99079 13.089C4.11175 13.1651 4.23536 13.2375 4.36157 13.3059L4.62496 13.4412L4.88553 13.5607L5.18837 13.6828L5.43169 13.7686C5.56564 13.8128 5.70149 13.8529 5.83857 13.8885C5.94262 13.9155 6.04767 13.9401 6.15405 13.9622C6.27993 13.9883 6.40713 14.0109 6.53544 14.0298L6.85241 14.0685L7.11934 14.0892C7.24637 14.0965 7.37436 14.1002 7.50322 14.1002C11.1483 14.1002 14.1032 11.1453 14.1032 7.50023C14.1032 7.25044 14.0893 7.00389 14.0623 6.76131L14.0255 6.48407C13.991 6.26083 13.9453 6.04129 13.8891 5.82642C13.8213 5.56709 13.7382 5.31398 13.6409 5.06881L13.5279 4.80132L13.4507 4.63542L13.3766 4.48666C13.2178 4.17773 13.0353 3.88295 12.8312 3.60423L12.6782 3.40352L12.4793 3.16432L12.3157 2.98361L12.1961 2.85951L12.0355 2.70246L11.8134 2.50184L11.4925 2.24191L11.2483 2.06498L10.9562 1.87446L10.6346 1.68894L10.3073 1.52378L10.1938 1.47176L9.95488 1.3706L9.67791 1.2669L9.42566 1.1846L9.10075 1.09489L8.83599 1.03486L8.54406 0.98184ZM10.4032 5.30023C10.4032 4.27588 10.2002 3.29829 9.83244 2.40604C11.7623 3.28995 13.1032 5.23862 13.1032 7.50023C13.1032 10.593 10.596 13.1002 7.50322 13.1002C6.63646 13.1002 5.81597 12.9036 5.08355 12.5522C6.5419 12.0941 7.81081 11.2082 8.74322 10.0416C8.87963 10.2284 9.10028 10.3497 9.34928 10.3497C9.76349 10.3497 10.0993 10.0139 10.0993 9.59971C10.0993 9.24256 9.84965 8.94373 9.51535 8.86816C9.57741 8.75165 9.63653 8.63334 9.6926 8.51332C9.88358 8.63163 10.1088 8.69993 10.35 8.69993C11.0403 8.69993 11.6 8.14028 11.6 7.44993C11.6 6.75976 11.0406 6.20024 10.3505 6.19993C10.3853 5.90487 10.4032 5.60464 10.4032 5.30023Z" clipRule="evenodd" fillRule="evenodd"/></symbol><symbol id="icon-plus" viewBox="0 0 24 24"><line x1="12" x2="12" y1="5" y2="19" stroke="currentColor"/><line x1="5" x2="19" y1="12" y2="12" stroke="currentColor"/></symbol><symbol id="icon-rain" viewBox="0 0 24 24"><path fill="white" d="M6.31598 20.9999H5.21198L6.14698 18.9999H7.25198L6.31598 20.9999ZM8.38098 22.9999L10.252 18.9999H9.14699L7.27698 22.9999H8.38098ZM11.849 21.9999L13.252 18.9999H12.147L10.744 21.9999H11.849ZM15.147 18.9999L12.808 23.9999H13.913L16.252 18.9999H15.147ZM18.147 18.9999L17.212 20.9999H18.316L19.252 18.9999H18.147ZM5.43698 17.9999C4.53546 17.9845 3.67605 17.6156 3.04394 16.9726C2.41183 16.3296 2.05762 15.4641 2.05762 14.5624C2.05762 13.6607 2.41183 12.7952 3.04394 12.1522C3.67605 11.5092 4.53546 11.1403 5.43698 11.1249L5.44898 11.1259C5.77493 10.3924 6.35203 9.79941 7.07638 9.45365C7.80072 9.10788 8.62472 9.03208 9.39998 9.2399C9.67231 8.07886 10.315 7.03796 11.231 6.27438C12.1471 5.5108 13.2867 5.06601 14.4778 5.00718C15.6689 4.94835 16.8468 5.27867 17.8336 5.94826C18.8204 6.61785 19.5626 7.59035 19.948 8.7189C20.9903 9.12848 21.857 9.88915 22.3983 10.8696C22.9395 11.85 23.1215 12.9887 22.9127 14.089C22.7039 15.1893 22.1175 16.1822 21.2547 16.8962C20.3919 17.6102 19.3069 18.0006 18.187 17.9999H5.43698ZM2.99998 14.5619C3.00051 15.2083 3.25754 15.8281 3.71464 16.2852C4.17174 16.7423 4.79155 16.9994 5.43798 16.9999H18.188C19.0752 17.0007 19.9349 16.6917 20.6184 16.1261C21.302 15.5605 21.7666 14.7739 21.9319 13.9022C22.0972 13.0305 21.9529 12.1285 21.5238 11.3519C21.0947 10.5753 20.4079 9.97294 19.582 9.6489L19.153 9.4789L19.003 9.0429C18.688 8.11938 18.081 7.32347 17.2737 6.77543C16.4663 6.22739 15.5026 5.957 14.528 6.00512C13.5534 6.05323 12.621 6.41723 11.8716 7.04212C11.1222 7.66702 10.5965 8.51884 10.374 9.4689L10.142 10.4589L9.15598 10.2089C8.96226 10.1562 8.76271 10.128 8.56199 10.1249C8.0973 10.1273 7.64294 10.2621 7.2522 10.5137C6.86146 10.7652 6.55057 11.1229 6.35598 11.5449L6.08798 12.1259H5.37298C4.73822 12.1438 4.13542 12.4083 3.69241 12.8633C3.2494 13.3183 3.00103 13.9269 2.99998 14.5619Z"/></symbol><symbol id="icon-sun" viewBox="0 0 15 15"><path fill="currentColor" d="M7.5 0C7.77614 0 8 0.223858 8 0.5V2.5C8 2.77614 7.77614 3 7.5 3C7.22386 3 7 2.77614 7 2.5V0.5C7 0.223858 7.22386 0 7.5 0ZM2.1967 2.1967C2.39196 2.00144 2.70854 2.00144 2.90381 2.1967L4.31802 3.61091C4.51328 3.80617 4.51328 4.12276 4.31802 4.31802C4.12276 4.51328 3.80617 4.51328 3.61091 4.31802L2.1967 2.90381C2.00144 2.70854 2.00144 2.39196 2.1967 2.1967ZM0.5 7C0.223858 7 0 7.22386 0 7.5C0 7.77614 0.223858 8 0.5 8H2.5C2.77614 8 3 7.77614 3 7.5C3 7.22386 2.77614 7 2.5 7H0.5ZM2.1967 12.8033C2.00144 12.608 2.00144 12.2915 2.1967 12.0962L3.61091 10.682C3.80617 10.4867 4.12276 10.4867 4.31802 10.682C4.51328 10.8772 4.51328 11.1938 4.31802 11.3891L2.90381 12.8033C2.70854 12.9986 2.39196 12.9986 2.1967 12.8033ZM12.5 7C12.2239 7 12 7.22386 12 7.5C12 7.77614 12.2239 8 12.5 8H14.5C14.7761 8 15 7.77614 15 7.5C15 7.22386 14.7761 7 14.5 7H12.5ZM10.682 4.31802C10.4867 4.12276 10.4867 3.80617 10.682 3.61091L12.0962 2.1967C12.2915 2.00144 12.608 2.00144 12.8033 2.1967C12.9986 2.39196 12.9986 2.70854 12.8033 2.90381L11.3891 4.31802C11.1938 4.51328 10.8772 4.51328 10.682 4.31802ZM8 12.5C8 12.2239 7.77614 12 7.5 12C7.22386 12 7 12.2239 7 12.5V14.5C7 14.7761 7.22386 15 7.5 15C7.77614 15 8 14.7761 8 14.5V12.5ZM10.682 10.682C10.8772 10.4867 11.1938 10.4867 11.3891 10.682L12.8033 12.0962C12.9986 12.2915 12.9986 12.608 12.8033 12.8033C12.608 12.9986 12.2915 12.9986 12.0962 12.8033L10.682 11.3891C10.4867 11.1938 10.4867 10.8772 10.682 10.682ZM5.5 7.5C5.5 6.39543 6.39543 5.5 7.5 5.5C8.60457 5.5 9.5 6.39543 9.5 7.5C9.5 8.60457 8.60457 9.5 7.5 9.5C6.39543 9.5 5.5 8.60457 5.5 7.5ZM7.5 4.5C5.84315 4.5 4.5 5.84315 4.5 7.5C4.5 9.15685 5.84315 10.5 7.5 10.5C9.15685 10.5 10.5 9.15685 10.5 7.5C10.5 5.84315 9.15685 4.5 7.5 4.5Z" clipRule="evenodd" fillRule="evenodd"/></symbol><symbol id="icon-waste-water" viewBox="0 0 32 32"><path fill="var(--blue-a4)" stroke="var(--blue-a9)" d="M24.7557 1H7.4863C3.90402 1 1 3.90402 1 7.4863V24.7557C1 28.338 3.90402 31.242 7.4863 31.242H24.7557C28.338 31.242 31.242 28.338 31.242 24.7557V7.4863C31.242 3.90402 28.338 1 24.7557 1Z" strokeLinejoin="round" strokeWidth="1.1632"/><path fill="var(--blue-a5)" d="M11.7146 18.7145L11.7453 17.5504L11.7146 18.7145ZM8.03857 20.093C9.84177 19.8153 9.98517 18.7438 9.93787 17.5811L8.03857 20.093ZM15.6204 20.0624C13.2439 20.1319 13.5934 17.8188 13.5833 17.428L15.6204 20.0624ZM11.7759 10.5967C8.93417 12.0043 7.79997 14.2658 7.73227 17.0604C7.60176 20.3322 4.54997 18.4132 4.53747 20.2283C4.52584 22.0434 6.72577 20.9856 6.72147 22.5284C6.71682 24.0712 4.48887 23.3902 4.51587 24.7493C4.54285 26.1084 6.39987 25.9746 6.39987 25.9746L23.2329 25.9583C23.2329 25.9583 25.5279 26.0516 25.4538 24.5798C25.3796 23.108 20.2017 24.5938 20.1389 22.6652C20.0761 20.7383 23.3981 22.5275 23.386 20.3677C23.3743 18.2081 17.9727 19.7041 16.7386 19.0199C15.5044 18.3356 15.4376 16.5382 16.4935 15.1907"/><path fill="none" stroke="var(--blue-a11)" d="M11.7146 18.7145L11.7453 17.5504M8.03857 20.093C9.84177 19.8153 9.98517 18.7438 9.93787 17.5811M15.6204 20.0624C13.2439 20.1319 13.5934 17.8188 13.5833 17.428M11.7759 10.5967C8.93417 12.0043 7.79997 14.2658 7.73227 17.0604C7.60176 20.3322 4.54997 18.4132 4.53747 20.2283C4.52584 22.0434 6.72577 20.9856 6.72147 22.5284C6.71682 24.0712 4.48887 23.3902 4.51587 24.7493C4.54285 26.1084 6.39987 25.9746 6.39987 25.9746L23.2329 25.9583C23.2329 25.9583 25.5279 26.0516 25.4538 24.5798C25.3796 23.108 20.2017 24.5938 20.1389 22.6652C20.0761 20.7383 23.3981 22.5275 23.386 20.3677C23.3743 18.2081 17.9727 19.7041 16.7386 19.0199C15.5044 18.3356 15.4376 16.5382 16.4935 15.1907" strokeLinecap="round" strokeWidth="1.1632"/><path fill="var(--blue-a4)" d="M19.1515 14.7315L19.6936 15.2719C19.0431 15.9538 18.4324 17.0007 17.3407 16.0836L11.1673 9.86695C10.4644 9.20954 10.6387 8.83605 10.929 8.43735L11.8821 7.48424L12.5652 8.1453M23.2562 14.272L23.2867 6.3073L23.2562 14.272ZM25.6149 15.6198V4.8058C24.6502 4.79416 23.6926 4.8015 23.2867 6.3073C18.95 6.55586 15.3727 5.51317 12.5652 8.1453L19.1515 14.7315C20.0181 13.9213 21.803 14.3544 23.2562 14.272C23.655 15.5205 24.7626 15.624 25.6149 15.6198Z"/><path fill="none" stroke="var(--blue-a9)" d="M19.1515 14.7315L19.6936 15.2719C19.0431 15.9538 18.4324 17.0007 17.3407 16.0836L11.1673 9.86695C10.4644 9.20954 10.6387 8.83605 10.929 8.43735L11.8821 7.48424L12.5652 8.1453M19.1515 14.7315L12.5652 8.1453M19.1515 14.7315C20.0181 13.9213 21.803 14.3544 23.2562 14.272M12.5652 8.1453C15.3727 5.51317 18.95 6.55586 23.2867 6.3073M23.2562 14.272L23.2867 6.3073M23.2562 14.272C23.655 15.5205 24.7626 15.624 25.6149 15.6198V4.8058C24.6502 4.79416 23.6926 4.8015 23.2867 6.3073" strokeWidth="1.1632"/><path fill="var(--blue-a4)" d="M11.7786 23.8295C12.4332 22.9465 12.3561 21.9559 11.7786 20.8917V23.8295ZM9.96329 22.2651C11.7725 19.7379 13.3191 20.4508 15.3325 22.313C15.6425 21.3898 16.3734 20.5991 17.5861 20.5787C17.1032 21.7922 17.0439 23.0269 17.5861 24.2917C16.4648 24.287 15.7109 23.2978 15.3937 22.3878C13.4955 24.3881 11.9557 24.6564 9.95499 22.5032C9.91963 22.4239 9.88589 22.3445 9.96429 22.2651L9.96329 22.2651Z"/><path fill="none" stroke="var(--blue-a7)" d="M11.7786 23.8295C12.4332 22.9465 12.3561 21.9559 11.7786 20.8917M9.96329 22.2651C11.7725 19.7379 13.3191 20.4508 15.3325 22.313C15.6425 21.3898 16.3734 20.5991 17.5861 20.5787C17.1032 21.7922 17.0439 23.0269 17.5861 24.2917C16.4648 24.287 15.7109 23.2978 15.3937 22.3878C13.4955 24.3881 11.9557 24.6564 9.95499 22.5032C9.91963 22.4239 9.88589 22.3445 9.96429 22.2651L9.96329 22.2651Z" strokeLinecap="round" strokeLinejoin="round" strokeWidth="1.1632"/></symbol><symbol id="icon-water-info" viewBox="0 0 32 32"><path fill="var(--blue-a4)" stroke="var(--blue-a9)" d="M24.7557 1H7.4863C3.90402 1 1 3.90402 1 7.4863V24.7557C1 28.338 3.90402 31.242 7.4863 31.242H24.7557C28.338 31.242 31.242 28.338 31.242 24.7557V7.4863C31.242 3.90402 28.338 1 24.7557 1Z" strokeLinejoin="round" strokeWidth="1.1632"/><path fill="none" stroke="var(--blue-a9)" d="M15.0684 15.7695C13.9746 15.565 13.0833 14.9759 12.4837 14.0613C12.0287 13.3671 11.9052 12.9356 11.9085 12.0503C11.9107 11.395 11.9295 11.2626 12.0842 10.8567C12.5273 9.68666 13.2473 8.38546 14.4038 6.66486C15.1819 5.50736 15.3074 5.38606 15.7268 5.38666C16.0633 5.3871 16.2584 5.59277 17.0455 6.77596C18.5612 9.05436 19.256 10.4339 19.4921 11.634C19.55 11.9287 19.5446 12.0994 19.463 12.5749C19.15 14.3925 17.6932 15.7034 15.8856 15.7941C15.5882 15.8081 15.2204 15.7988 15.0684 15.7695Z" strokeWidth="1.1632"/><path fill="none" stroke="var(--blue-a11)" d="M5.67273 17.8175C6.24588 17.9784 6.81843 18.5657 7.39103 19.0642C7.96421 19.5626 8.53673 19.8866 9.10933 19.7524C9.68251 19.6184 10.255 19.0473 10.8276 18.5418C11.4008 18.0364 11.9734 17.6825 12.5459 17.7901C13.1185 17.8978 13.6916 18.4503 14.2642 18.9614C14.8368 19.4725 15.4099 19.8553 15.9825 19.7745C16.5551 19.6935 17.1283 19.1611 17.7008 18.6458C18.2734 18.1304 18.8465 17.7197 19.4191 17.7737C19.9917 17.8276 20.5648 18.3386 21.1374 18.8567C21.71 19.3748 22.2825 19.8123 22.8557 19.7855C23.4283 19.7587 24.0009 19.2706 24.574 18.7511C25.1466 18.2315 25.7192 17.7685 26.2923 17.7681" strokeLinecap="round" strokeLinejoin="round" strokeWidth="1.0976"/><path fill="none" stroke="var(--blue-a11)" d="M5.67273 21.5104C6.24588 21.6714 6.81843 22.2587 7.39103 22.7571C7.96421 23.2555 8.53673 23.5796 9.10933 23.4454C9.68251 23.3114 10.255 22.7402 10.8276 22.2348C11.4008 21.7294 11.9734 21.3755 12.5459 21.4831C13.1185 21.5908 13.6916 22.1434 14.2642 22.6544C14.8368 23.1655 15.4099 23.5484 15.9825 23.4674C16.5551 23.3865 17.1283 22.8541 17.7008 22.3388C18.2734 21.8234 18.8465 21.4127 19.4191 21.4667C19.9917 21.5206 20.5648 22.0316 21.1374 22.5497C21.71 23.0678 22.2825 23.5053 22.8557 23.4785C23.4283 23.4517 24.0009 22.9636 24.574 22.4441C25.1466 21.9245 25.7192 21.4615 26.2923 21.4611" strokeLinecap="round" strokeLinejoin="round" strokeWidth="1.0976"/><path fill="none" stroke="var(--blue-a11)" d="M5.67273 25.2035C6.24588 25.3645 6.81843 25.9517 7.39103 26.4502C7.96421 26.9486 8.53673 27.2726 9.10933 27.1385C9.68251 27.0042 10.255 26.4333 10.8276 25.9279C11.4008 25.4224 11.9734 25.0685 12.5459 25.1762C13.1185 25.2839 13.6916 25.8364 14.2642 26.3474C14.8368 26.8585 15.4099 27.2413 15.9825 27.1604C16.5551 27.0795 17.1283 26.547 17.7008 26.0317C18.2734 25.5164 18.8465 25.1057 19.4191 25.1596C19.9917 25.2136 20.5648 25.7245 21.1374 26.2427C21.71 26.7608 22.2825 27.1983 22.8557 27.1715C23.4283 27.1448 24.0009 26.6566 24.574 26.1371C25.1466 25.6176 25.7192 25.1546 26.2923 25.1542" strokeLinecap="round" strokeLinejoin="round" strokeWidth="1.0976"/></symbol><symbol id="icon-x" viewBox="0 0 24 24"><path d="M18.01 6.697L12.707 12l5.303 5.303-.707.707L12 12.707 6.697 18.01l-.707-.707L11.293 12 5.99 6.697l.707-.707L12 11.293l5.303-5.303z"/><path fill="none" d="M0 0h24v24H0z"/></symbol></defs>
    </svg>