<?xml version="1.0" encoding="UTF-8"?>
<svg width="55.262mm" height="82.893mm" version="1.1" viewBox="0 0 55.262 82.893" xmlns="http://www.w3.org/2000/svg">
 <path d="m27.631 48.576c-11.52 0-20.945-9.4252-20.945-20.945 0-11.52 9.4252-20.945 20.945-20.945s20.945 9.4252 20.945 20.945c0 11.52-9.4252 20.945-20.945 20.945z" fill="#fff" stroke-width="3.4539"/>
 <path d="m27.631 0c-15.197 0-27.631 12.434-27.631 27.631 0 18.651 27.631 55.262 27.631 55.262s27.631-36.611 27.631-55.262c0-15.197-12.434-27.631-27.631-27.631zm0 48.576c-11.52 0-20.945-9.4252-20.945-20.945 0-11.52 9.4252-20.945 20.945-20.945s20.945 9.4252 20.945 20.945c0 11.52-9.4252 20.945-20.945 20.945z" fill="#0954a5" stroke-width="3.4539"/>
 <path d="m27.631 9.2252c-10.153 0-18.406 8.2528-18.406 18.406s8.2528 18.406 18.406 18.406 18.406-8.2528 18.406-18.406-8.2528-18.406-18.406-18.406zm0 2c9.0726 0 16.406 7.3337 16.406 16.406s-7.3337 16.406-16.406 16.406-16.406-7.3337-16.406-16.406 7.3337-16.406 16.406-16.406z" color="#000000" fill="#613d30" style="-inkscape-stroke:none"/>
 <g transform="matrix(.76128 0 0 .76128 -9.0669 -39.866)">
  <path d="m49.882 76.04c-0.10094 0.10452-0.03851 0.28888-0.06271 0.42332-0.03032 0.86222 0.09456 1.7713-0.31851 2.5615-0.27968 0.57016-0.8863 0.89582-1.4879 1.0055-1.2483 0.2437-2.5588 0.01711-3.7858 0.40343-1.0177 0.32092-1.7167 1.3233-1.8046 2.3674-0.05294 0.37556 0.0044 0.75038 0.09271 1.1148 0.06297 0.41012 0.06713 0.93423-0.30482 1.2035-0.33058 0.07974-0.68416 0.07339-1.0077 0.19661-0.99618 0.34054-1.8743 1.167-2.1028 2.2159-0.0249 0.42783-0.0491 0.86866 0.05106 1.289 0.08525 0.4049 0.28783 0.77637 0.58066 1.0681 0.0872 0.06967 0.10497 0.23443-0.03896 0.24276-0.46517 0.07953-0.95965 0.06236-1.3968 0.27426-1.3588 0.58762-2.0398 2.3104-1.5277 3.6835 0.2403 0.6433 0.71889 1.2241 1.3542 1.5039 0.6275 0.14844 1.2802 0.15413 1.9211 0.20459 3.4136 0.19446 6.8339 0.14029 10.251 0.13785 2.0099-0.0064 4.0207-0.01178 6.0277-0.1332 0.64268-0.04979 1.2976-0.0496 1.9263-0.20405 0.50614-0.21726 0.91324-0.63638 1.193-1.1047 0.27129-0.467 0.38678-1.0122 0.34669-1.5497-0.01827-0.765-0.37791-1.5111-0.92872-2.0367-0.48797-0.46605-1.1556-0.71668-1.8274-0.72586-0.14402-0.01099-0.29836-0.01925-0.43649-0.04096 0.27717-0.67331 0.70701-1.3157 0.71917-2.0684 0.04878-1.0957-0.65727-2.1598-1.6664-2.5759-0.46727-0.22526-1.0015-0.22774-1.4735-0.42977-0.21035-0.12-0.25698-0.39366-0.41018-0.56871-0.16485-0.23612-0.36416-0.44495-0.55844-0.65652 0.35596-0.81031 0.78671-1.636 0.76633-2.5457 0.02635-0.56092-0.01866-1.1262-0.19404-1.6625-0.39428-1.363-1.3724-2.5619-2.6537-3.1806-0.39697-0.17833-0.81612-0.33395-1.243-0.41277z" fill="#8e562e" stroke-opacity=".94902" stroke-width=".019983"/>
  <g fill="none" stroke="#613d30">
   <path d="m36.613 94.826h23.629" stroke-width="2.4395"/>
   <path d="m38.834 89.325h19.788" stroke-width="1.7284"/>
   <path d="m41.664 84.188h13.149" stroke-width="1.5348"/>
  </g>
  <path d="m38.441 97.558c-3.6955-0.92743-4.7527-5.701-1.767-7.9783 0.70002-0.53392 0.73279-0.59817 0.76944-1.5081 0.06906-1.7145 0.8758-3.0618 2.3221-3.8781 0.8652-0.48829 0.88371-0.5149 0.99056-1.424 0.3185-2.7099 1.999-4.0704 5.1897-4.2015 2.344-0.09628 2.2514-4.54e-4 2.2514-2.3311v-1.921l1.4018 0.08746c4.3613 0.27209 6.9818 4.3948 5.6723 8.9237-0.08136 0.28136-0.03965 0.37524 0.16665 0.37524 1.6019 0 3.4611 2.3063 3.5219 4.3688 0.02697 0.91409 0.05559 0.97098 0.75987 1.5081 2.6594 2.0284 2.2134 6.049-0.84902 7.6551l-0.75048 0.39359-9.5895 0.02786c-5.2742 0.01532-9.8146-0.02868-10.09-0.09773zm19.91-2.0237c2.4911-1.4001 1.4974-5.3014-1.356-5.3242-0.25224-0.0019-0.45832-0.02245-0.45793-0.04538 3.33e-4 -0.02295 0.18801-0.41089 0.41694-0.86213 0.90878-1.7913-0.13321-3.7195-2.1755-4.0257-0.47933-0.07188-0.76418-0.20882-0.82356-0.39592-0.1931-0.42388-0.4723-0.69555-0.78626-1.0326l0.386-0.86526c1.1902-2.6679-0.35741-5.9736-3.1749-6.7817l-0.51437-0.14752-6.18e-4 1.1975c-0.0013 2.2408-0.81664 2.9449-3.4182 2.9516-1.875 5e-3 -2.7663 0.28929-3.3897 1.0818-0.54397 0.69154-0.76656 1.6918-0.54274 2.4389 0.21423 0.71504-0.02937 1.4788-0.47214 1.4804-1.2291 0.0044-2.5065 0.95457-2.8573 2.1256-0.22981 0.76704 0.0044 2.0282 0.44499 2.3936 0.35853 0.29755 0.27131 0.48274-0.22926 0.48673-2.8283 0.02256-3.8336 3.8946-1.3807 5.3176 0.92222 0.53501 19.381 0.54103 20.331 0.0066z" stroke-width=".16677" fill="#000"/>
  <g stroke-linecap="round">
   <circle cx="44.626" cy="85.525" r="2.059" stroke="#fff" fill="#000" stroke-width="1.2371"/>
   <path transform="scale(1,-1)" d="m52.097-93.125a4.0061 3.0531 0 0 1-2.003 2.6441 4.0061 3.0531 0 0 1-4.0061 0 4.0061 3.0531 0 0 1-2.003-2.6441" fill="none" stroke="#000" stroke-width="1.5348"/>
   <circle cx="51.484" cy="85.525" r="2.059" stroke="#fff" fill="#000" stroke-width="1.2371"/>
  </g>
 </g>
 <path d="m27.631 11.223c-9.0506 0-16.406 7.3577-16.406 16.408s7.3556 16.406 16.406 16.406 16.406-7.3556 16.406-16.406-7.3556-16.408-16.406-16.408zm0 4.0267c6.847 0 12.382 5.5346 12.382 12.382s-5.5346 12.382-12.382 12.382-12.382-5.5346-12.382-12.382 5.5346-12.382 12.382-12.382z" color="#000000" fill="#52a9ff" style="-inkscape-stroke:none"/>
</svg>
