<?xml version="1.0" standalone="no"?>
<!DOCTYPE svg PUBLIC "-//W3C//DTD SVG 20010904//EN"
 "http://www.w3.org/TR/2001/REC-SVG-20010904/DTD/svg10.dtd">
<svg version="1.0" xmlns="http://www.w3.org/2000/svg"
 width="696.000000pt" height="696.000000pt" viewBox="0 0 696.000000 696.000000"
 preserveAspectRatio="xMidYMid meet">
<metadata>
Created by potrace 1.14, written by Peter Selinger 2001-2017
</metadata>
<g transform="translate(0.000000,696.000000) scale(0.100000,-0.100000)"
fill="#000000" stroke="none">
<path d="M3299 6956 c-2 -2 -35 -6 -74 -10 -122 -11 -308 -45 -420 -78 -38
-11 -83 -23 -100 -27 -107 -28 -514 -209 -523 -232 -2 -5 -8 -9 -14 -9 -10 0
-217 -135 -258 -169 -14 -11 -30 -24 -35 -28 -110 -83 -308 -278 -400 -393
-33 -41 -64 -80 -70 -87 -45 -55 -85 -112 -85 -121 0 -6 -3 -12 -8 -14 -21 -9
-199 -322 -194 -340 1 -5 -2 -8 -8 -8 -5 0 -10 -4 -10 -10 0 -5 -12 -35 -26
-67 -40 -89 -49 -111 -82 -208 -41 -120 -69 -213 -76 -250 -2 -16 -9 -46 -15
-65 -5 -19 -12 -53 -16 -75 -3 -23 -8 -52 -10 -65 -14 -68 -20 -209 -20 -435
1 -262 7 -354 32 -464 8 -36 16 -74 17 -83 1 -10 5 -21 9 -24 4 -4 7 -16 7
-26 0 -40 126 -398 156 -445 8 -13 12 -23 10 -23 -6 0 68 -145 82 -163 6 -6
10 -14 10 -17 -1 -3 13 -30 31 -60 34 -59 34 -59 98 -162 24 -38 43 -73 43
-78 0 -6 5 -10 10 -10 6 0 10 -4 10 -10 0 -13 237 -367 388 -580 181 -253 465
-637 579 -780 24 -30 53 -66 63 -80 11 -14 66 -84 122 -156 57 -72 114 -145
128 -163 14 -18 33 -42 43 -54 10 -12 31 -37 45 -56 15 -18 34 -41 42 -51 8
-10 29 -34 45 -55 17 -20 55 -67 85 -103 30 -37 58 -71 63 -77 4 -5 17 -22 30
-36 12 -14 40 -47 62 -74 36 -44 95 -112 120 -141 6 -6 35 -40 65 -74 30 -35
63 -73 73 -84 55 -63 130 -136 140 -136 34 0 261 218 425 410 26 30 65 75 87
100 22 25 87 101 145 170 57 69 109 130 115 136 5 6 24 29 40 50 26 33 56 70
100 121 6 6 21 26 35 44 14 18 31 38 38 45 6 7 12 17 12 22 0 6 4 12 9 14 7 2
166 202 258 323 10 12 104 136 115 150 12 14 144 193 203 272 27 38 65 91 84
118 19 28 41 56 48 63 7 7 13 17 13 21 0 5 13 24 30 42 16 19 32 42 36 52 3 9
10 17 15 17 5 0 9 4 9 9 0 6 31 54 68 108 85 123 230 354 313 498 35 61 65
112 68 115 9 8 48 78 94 170 23 47 45 87 50 88 4 2 7 11 7 21 0 9 4 21 9 26
14 15 99 233 127 327 33 109 54 202 60 258 2 25 6 61 8 80 28 229 28 673 1
850 -2 14 -7 48 -11 75 -3 28 -11 58 -16 68 -5 9 -7 17 -4 17 2 0 0 17 -5 38
-5 20 -12 48 -15 61 -24 113 -114 342 -198 501 -65 125 -206 350 -261 418
-150 184 -251 292 -410 436 -53 49 -246 195 -315 238 -184 117 -508 254 -715
303 -5 1 -17 4 -25 7 -14 5 -66 17 -180 39 -25 4 -67 11 -95 14 -27 4 -61 9
-75 11 -30 5 -456 14 -461 10z"/>
</g>
</svg>
